<?xml version="1.0" encoding="us-ascii" standalone="no"?><svg xmlns="http://www.w3.org/2000/svg" xmlns:xlink="http://www.w3.org/1999/xlink" contentStyleType="text/css" height="1680px" preserveAspectRatio="none" style="width:1546px;height:1680px;background:#FFFFFF;" version="1.1" viewBox="0 0 1546 1680" width="1546px" zoomAndPan="magnify"><defs/><g><rect fill="#FFFFFF" height="30.3516" style="stroke:#A80036;stroke-width:1.0;" width="10" x="471" y="234.3672"/><rect fill="#FFFFFF" height="30.3516" style="stroke:#A80036;stroke-width:1.0;" width="10" x="471" y="325.4219"/><rect fill="#FFFFFF" height="30.3516" style="stroke:#A80036;stroke-width:1.0;" width="10" x="471" y="625.5859"/><rect fill="#FFFFFF" height="30.3516" style="stroke:#A80036;stroke-width:1.0;" width="10" x="471" y="686.2891"/><rect fill="#FFFFFF" height="30.3516" style="stroke:#A80036;stroke-width:1.0;" width="10" x="471" y="783.3438"/><rect fill="#FFFFFF" height="30.3516" style="stroke:#A80036;stroke-width:1.0;" width="10" x="471" y="943.1016"/><rect fill="#FFFFFF" height="30.3516" style="stroke:#A80036;stroke-width:1.0;" width="10" x="471" y="1066.5078"/><rect fill="#FFFFFF" height="30.3516" style="stroke:#A80036;stroke-width:1.0;" width="10" x="471" y="1219.2656"/><rect fill="#FFFFFF" height="30.3516" style="stroke:#A80036;stroke-width:1.0;" width="10" x="471" y="1393.0234"/><rect fill="#FFFFFF" height="30.3516" style="stroke:#A80036;stroke-width:1.0;" width="10" x="471" y="1557.7813"/><rect fill="#FFFFFF" height="30.3516" style="stroke:#A80036;stroke-width:1.0;" width="10" x="471" y="1618.4844"/><rect fill="#FFFFFF" height="30.3516" style="stroke:#A80036;stroke-width:1.0;" width="10" x="1180" y="234.3672"/><rect fill="#FFFFFF" height="30.3516" style="stroke:#A80036;stroke-width:1.0;" width="10" x="1180" y="325.4219"/><rect fill="#FFFFFF" height="30.3516" style="stroke:#A80036;stroke-width:1.0;" width="10" x="1180" y="625.5859"/><rect fill="#FFFFFF" height="30.3516" style="stroke:#A80036;stroke-width:1.0;" width="10" x="1180" y="686.2891"/><rect fill="#FFFFFF" height="30.3516" style="stroke:#A80036;stroke-width:1.0;" width="10" x="1180" y="783.3438"/><rect fill="#FFFFFF" height="30.3516" style="stroke:#A80036;stroke-width:1.0;" width="10" x="1180" y="943.1016"/><rect fill="#FFFFFF" height="30.3516" style="stroke:#A80036;stroke-width:1.0;" width="10" x="1180" y="1066.5078"/><rect fill="#FFFFFF" height="30.3516" style="stroke:#A80036;stroke-width:1.0;" width="10" x="1180" y="1219.2656"/><rect fill="#FFFFFF" height="30.3516" style="stroke:#A80036;stroke-width:1.0;" width="10" x="1180" y="1393.0234"/><rect fill="#FFFFFF" height="30.3516" style="stroke:#A80036;stroke-width:1.0;" width="10" x="1180" y="1557.7813"/><rect fill="#FFFFFF" height="30.3516" style="stroke:#A80036;stroke-width:1.0;" width="10" x="1180" y="1618.4844"/><rect fill="none" height="749.4375" style="stroke:#000000;stroke-width:2.0;" width="1530.5" x="10" y="102.6094"/><rect fill="none" height="48.7031" style="stroke:#000000;stroke-width:2.0;" width="491" x="20" y="370.7734"/><rect fill="none" height="115.4063" style="stroke:#000000;stroke-width:2.0;" width="1133" x="125" y="866.0469"/><rect fill="none" height="269.1641" style="stroke:#000000;stroke-width:2.0;" width="1380.5" x="160" y="995.4531"/><rect fill="none" height="79.0547" style="stroke:#000000;stroke-width:2.0;" width="817" x="441" y="1178.5625"/><rect fill="none" height="378.2188" style="stroke:#000000;stroke-width:2.0;" width="1238" x="20" y="1278.6172"/><line style="stroke:#A80036;stroke-width:1.0;stroke-dasharray:5.0,5.0;" x1="62" x2="62" y1="85.6094" y2="1673.8359"/><line style="stroke:#A80036;stroke-width:1.0;stroke-dasharray:5.0,5.0;" x1="289.5" x2="289.5" y1="85.6094" y2="1673.8359"/><line style="stroke:#A80036;stroke-width:1.0;stroke-dasharray:5.0,5.0;" x1="476" x2="476" y1="85.6094" y2="1673.8359"/><line style="stroke:#A80036;stroke-width:1.0;stroke-dasharray:5.0,5.0;" x1="1185" x2="1185" y1="85.6094" y2="1673.8359"/><line style="stroke:#A80036;stroke-width:1.0;stroke-dasharray:5.0,5.0;" x1="1454.5" x2="1454.5" y1="85.6094" y2="1673.8359"/><text fill="#000000" font-family="sans-serif" font-size="14" lengthAdjust="spacing" textLength="58" x="30" y="82.5332">EV driver</text><ellipse cx="62" cy="15" fill="#FEFECE" rx="8" ry="8" style="stroke:#A80036;stroke-width:2.0;"/><path d="M62,23 L62,50 M49,31 L75,31 M62,50 L49,65 M62,50 L75,65 " fill="none" style="stroke:#A80036;stroke-width:2.0;"/><rect fill="#FEFECE" height="31.6094" style="stroke:#A80036;stroke-width:1.5;" width="105" x="237.5" y="53"/><text fill="#000000" font-family="sans-serif" font-size="14" lengthAdjust="spacing" textLength="91" x="244.5" y="74.5332">SAE J1772 EV</text><rect fill="#FEFECE" height="31.6094" style="stroke:#A80036;stroke-width:1.5;" width="50" x="451" y="53"/><text fill="#000000" font-family="sans-serif" font-size="14" lengthAdjust="spacing" textLength="36" x="458" y="74.5332">EVSE</text><rect fill="#FEFECE" height="31.6094" style="stroke:#A80036;stroke-width:1.5;" width="126" x="1122" y="53"/><text fill="#000000" font-family="sans-serif" font-size="14" lengthAdjust="spacing" textLength="112" x="1129" y="74.5332">OCPP 1.6J CSMS</text><rect fill="#FEFECE" height="31.6094" style="stroke:#A80036;stroke-width:1.5;" width="151" x="1379.5" y="53"/><text fill="#000000" font-family="sans-serif" font-size="14" lengthAdjust="spacing" textLength="137" x="1386.5" y="74.5332">Secondary Actor (SA)</text><rect fill="#FFFFFF" height="30.3516" style="stroke:#A80036;stroke-width:1.0;" width="10" x="471" y="234.3672"/><rect fill="#FFFFFF" height="30.3516" style="stroke:#A80036;stroke-width:1.0;" width="10" x="471" y="325.4219"/><rect fill="#FFFFFF" height="30.3516" style="stroke:#A80036;stroke-width:1.0;" width="10" x="471" y="625.5859"/><rect fill="#FFFFFF" height="30.3516" style="stroke:#A80036;stroke-width:1.0;" width="10" x="471" y="686.2891"/><rect fill="#FFFFFF" height="30.3516" style="stroke:#A80036;stroke-width:1.0;" width="10" x="471" y="783.3438"/><rect fill="#FFFFFF" height="30.3516" style="stroke:#A80036;stroke-width:1.0;" width="10" x="471" y="943.1016"/><rect fill="#FFFFFF" height="30.3516" style="stroke:#A80036;stroke-width:1.0;" width="10" x="471" y="1066.5078"/><rect fill="#FFFFFF" height="30.3516" style="stroke:#A80036;stroke-width:1.0;" width="10" x="471" y="1219.2656"/><rect fill="#FFFFFF" height="30.3516" style="stroke:#A80036;stroke-width:1.0;" width="10" x="471" y="1393.0234"/><rect fill="#FFFFFF" height="30.3516" style="stroke:#A80036;stroke-width:1.0;" width="10" x="471" y="1557.7813"/><rect fill="#FFFFFF" height="30.3516" style="stroke:#A80036;stroke-width:1.0;" width="10" x="471" y="1618.4844"/><rect fill="#FFFFFF" height="30.3516" style="stroke:#A80036;stroke-width:1.0;" width="10" x="1180" y="234.3672"/><rect fill="#FFFFFF" height="30.3516" style="stroke:#A80036;stroke-width:1.0;" width="10" x="1180" y="325.4219"/><rect fill="#FFFFFF" height="30.3516" style="stroke:#A80036;stroke-width:1.0;" width="10" x="1180" y="625.5859"/><rect fill="#FFFFFF" height="30.3516" style="stroke:#A80036;stroke-width:1.0;" width="10" x="1180" y="686.2891"/><rect fill="#FFFFFF" height="30.3516" style="stroke:#A80036;stroke-width:1.0;" width="10" x="1180" y="783.3438"/><rect fill="#FFFFFF" height="30.3516" style="stroke:#A80036;stroke-width:1.0;" width="10" x="1180" y="943.1016"/><rect fill="#FFFFFF" height="30.3516" style="stroke:#A80036;stroke-width:1.0;" width="10" x="1180" y="1066.5078"/><rect fill="#FFFFFF" height="30.3516" style="stroke:#A80036;stroke-width:1.0;" width="10" x="1180" y="1219.2656"/><rect fill="#FFFFFF" height="30.3516" style="stroke:#A80036;stroke-width:1.0;" width="10" x="1180" y="1393.0234"/><rect fill="#FFFFFF" height="30.3516" style="stroke:#A80036;stroke-width:1.0;" width="10" x="1180" y="1557.7813"/><rect fill="#FFFFFF" height="30.3516" style="stroke:#A80036;stroke-width:1.0;" width="10" x="1180" y="1618.4844"/><path d="M10,102.6094 L173,102.6094 L173,110.9609 L163,120.9609 L10,120.9609 L10,102.6094 " fill="#EEEEEE" style="stroke:#000000;stroke-width:1.0;"/><rect fill="none" height="749.4375" style="stroke:#000000;stroke-width:2.0;" width="1530.5" x="10" y="102.6094"/><text fill="#000000" font-family="sans-serif" font-size="13" font-weight="bold" lengthAdjust="spacing" textLength="118" x="25" y="117.1045">J1772 Initialization</text><polygon fill="#A80036" points="1196,139.3125,1186,143.3125,1196,147.3125,1192,143.3125" style="stroke:#A80036;stroke-width:1.0;"/><line style="stroke:#A80036;stroke-width:1.0;" x1="1190" x2="1454" y1="143.3125" y2="143.3125"/><text fill="#000000" font-family="sans-serif" font-size="13" lengthAdjust="spacing" textLength="189" x="1202" y="138.4561">Provide Available PmaxSchedule</text><polygon fill="#A80036" points="278,169.6641,288,173.6641,278,177.6641,282,173.6641" style="stroke:#A80036;stroke-width:1.0;"/><line style="stroke:#A80036;stroke-width:1.0;" x1="62" x2="284" y1="173.6641" y2="173.6641"/><text fill="#000000" font-family="sans-serif" font-size="13" lengthAdjust="spacing" textLength="153" x="69" y="168.8076">Charging Cable Plugged In</text><polygon fill="#A80036" points="464,200.0156,474,204.0156,464,208.0156,468,204.0156" style="stroke:#A80036;stroke-width:1.0;"/><line style="stroke:#A80036;stroke-width:1.0;" x1="290" x2="470" y1="204.0156" y2="204.0156"/><text fill="#000000" font-family="sans-serif" font-size="13" lengthAdjust="spacing" textLength="162" x="297" y="199.1592">Control Pilot State A1 -&gt; B1</text><polygon fill="#A80036" points="1168,230.3672,1178,234.3672,1168,238.3672,1172,234.3672" style="stroke:#A80036;stroke-width:1.0;"/><line style="stroke:#A80036;stroke-width:1.0;" x1="481" x2="1174" y1="234.3672" y2="234.3672"/><text fill="#000000" font-family="sans-serif" font-size="13" lengthAdjust="spacing" textLength="657" x="488" y="229.5107">StatusNotification.req(connectorId, errorCode, status=Preparing, [timestamp], [info], [vendorId], [vendorErrorCode])</text><polygon fill="#A80036" points="487,260.7188,477,264.7188,487,268.7188,483,264.7188" style="stroke:#A80036;stroke-width:1.0;"/><line style="stroke:#A80036;stroke-width:1.0;stroke-dasharray:2.0,2.0;" x1="481" x2="1184" y1="264.7188" y2="264.7188"/><text fill="#000000" font-family="sans-serif" font-size="13" lengthAdjust="spacing" textLength="138" x="493" y="259.8623">StatusNotification.conf()</text><polygon fill="#A80036" points="464,291.0703,474,295.0703,464,299.0703,468,295.0703" style="stroke:#A80036;stroke-width:1.0;"/><line style="stroke:#A80036;stroke-width:1.0;" x1="62" x2="470" y1="295.0703" y2="295.0703"/><text fill="#000000" font-family="sans-serif" font-size="13" lengthAdjust="spacing" textLength="167" x="69" y="290.2139">present RFID(CHARGEX123)</text><polygon fill="#A80036" points="1168,321.4219,1178,325.4219,1168,329.4219,1172,325.4219" style="stroke:#A80036;stroke-width:1.0;"/><line style="stroke:#A80036;stroke-width:1.0;" x1="481" x2="1174" y1="325.4219" y2="325.4219"/><text fill="#000000" font-family="sans-serif" font-size="13" lengthAdjust="spacing" textLength="211" x="488" y="320.5654">Authorize.req(idTag=CHARGEX123))</text><polygon fill="#A80036" points="487,351.7734,477,355.7734,487,359.7734,483,355.7734" style="stroke:#A80036;stroke-width:1.0;"/><line style="stroke:#A80036;stroke-width:1.0;stroke-dasharray:2.0,2.0;" x1="481" x2="1184" y1="355.7734" y2="355.7734"/><text fill="#000000" font-family="sans-serif" font-size="13" lengthAdjust="spacing" textLength="198" x="493" y="350.917">Authorize.conf(status = Accepted)</text><path d="M20,370.7734 L85,370.7734 L85,379.125 L75,389.125 L20,389.125 L20,370.7734 " fill="#EEEEEE" style="stroke:#000000;stroke-width:1.0;"/><rect fill="none" height="48.7031" style="stroke:#000000;stroke-width:2.0;" width="491" x="20" y="370.7734"/><text fill="#000000" font-family="sans-serif" font-size="13" font-weight="bold" lengthAdjust="spacing" textLength="20" x="35" y="385.2686">opt</text><polygon fill="#A80036" points="73,407.4766,63,411.4766,73,415.4766,69,411.4766" style="stroke:#A80036;stroke-width:1.0;"/><line style="stroke:#A80036;stroke-width:1.0;" x1="67" x2="475" y1="411.4766" y2="411.4766"/><text fill="#000000" font-family="sans-serif" font-size="13" lengthAdjust="spacing" textLength="64" x="79" y="406.6201">Notification</text><path d="M192,431.4766 L192,457.4766 L573,457.4766 L573,441.4766 L563,431.4766 L192,431.4766 " fill="#FBFB77" style="stroke:#A80036;stroke-width:1.0;"/><path d="M563,431.4766 L563,441.4766 L573,441.4766 L563,431.4766 " fill="#FBFB77" style="stroke:#A80036;stroke-width:1.0;"/><text fill="#000000" font-family="sans-serif" font-size="13" lengthAdjust="spacing" textLength="360" x="198" y="449.9717">EVSE turns on Control Pilot Oscillator with Default Duty Cycle</text><polygon fill="#A80036" points="301,481.1797,291,485.1797,301,489.1797,297,485.1797" style="stroke:#A80036;stroke-width:1.0;"/><line style="stroke:#A80036;stroke-width:1.0;" x1="295" x2="475" y1="485.1797" y2="485.1797"/><text fill="#000000" font-family="sans-serif" font-size="13" lengthAdjust="spacing" textLength="162" x="307" y="480.3232">Control Pilot State A1 -&gt; B2</text><path d="M154,498.1797 L154,524.1797 L611,524.1797 L611,508.1797 L601,498.1797 L154,498.1797 " fill="#FBFB77" style="stroke:#A80036;stroke-width:1.0;"/><path d="M601,498.1797 L601,508.1797 L611,508.1797 L601,498.1797 " fill="#FBFB77" style="stroke:#A80036;stroke-width:1.0;"/><text fill="#000000" font-family="sans-serif" font-size="13" lengthAdjust="spacing" textLength="436" x="160" y="516.6748">EV Detects EVSE is Ready and Closes Pilot Switch S2 to Initiate Charging</text><polygon fill="#A80036" points="464,547.8828,474,551.8828,464,555.8828,468,551.8828" style="stroke:#A80036;stroke-width:1.0;"/><line style="stroke:#A80036;stroke-width:1.0;" x1="290" x2="470" y1="551.8828" y2="551.8828"/><text fill="#000000" font-family="sans-serif" font-size="13" lengthAdjust="spacing" textLength="162" x="297" y="547.0264">Control Pilot State B2 -&gt; C2</text><line style="stroke:#A80036;stroke-width:1.0;" x1="476" x2="518" y1="582.2344" y2="582.2344"/><line style="stroke:#A80036;stroke-width:1.0;" x1="518" x2="518" y1="582.2344" y2="595.2344"/><line style="stroke:#A80036;stroke-width:1.0;" x1="477" x2="518" y1="595.2344" y2="595.2344"/><polygon fill="#A80036" points="487,591.2344,477,595.2344,487,599.2344,483,595.2344" style="stroke:#A80036;stroke-width:1.0;"/><text fill="#000000" font-family="sans-serif" font-size="13" lengthAdjust="spacing" textLength="100" x="483" y="577.3779">Contactor Closed</text><polygon fill="#A80036" points="1168,621.5859,1178,625.5859,1168,629.5859,1172,625.5859" style="stroke:#A80036;stroke-width:1.0;"/><line style="stroke:#A80036;stroke-width:1.0;" x1="481" x2="1174" y1="625.5859" y2="625.5859"/><text fill="#000000" font-family="sans-serif" font-size="13" lengthAdjust="spacing" textLength="369" x="488" y="620.7295">StartTransaction.req(connectorId, idTag, meterStart, timestamp)</text><polygon fill="#A80036" points="487,651.9375,477,655.9375,487,659.9375,483,655.9375" style="stroke:#A80036;stroke-width:1.0;"/><line style="stroke:#A80036;stroke-width:1.0;stroke-dasharray:2.0,2.0;" x1="481" x2="1184" y1="655.9375" y2="655.9375"/><text fill="#000000" font-family="sans-serif" font-size="13" lengthAdjust="spacing" textLength="264" x="493" y="651.0811">StartTransaction.conf(idTaginfo, transactionId)</text><polygon fill="#A80036" points="492,682.2891,482,686.2891,492,690.2891,488,686.2891" style="stroke:#A80036;stroke-width:1.0;"/><line style="stroke:#A80036;stroke-width:1.0;" x1="486" x2="1179" y1="686.2891" y2="686.2891"/><text fill="#000000" font-family="sans-serif" font-size="13" lengthAdjust="spacing" textLength="322" x="498" y="681.4326">SetChargingProfile.req(ConnectorId, csChargingProfiles)</text><polygon fill="#A80036" points="1173,712.6406,1183,716.6406,1173,720.6406,1177,716.6406" style="stroke:#A80036;stroke-width:1.0;"/><line style="stroke:#A80036;stroke-width:1.0;stroke-dasharray:2.0,2.0;" x1="476" x2="1179" y1="716.6406" y2="716.6406"/><text fill="#000000" font-family="sans-serif" font-size="13" lengthAdjust="spacing" textLength="228" x="483" y="711.7842">SetChargingProfileResponse(Accepted)</text><path d="M170,729.6406 L170,755.6406 L595,755.6406 L595,739.6406 L585,729.6406 L170,729.6406 " fill="#FBFB77" style="stroke:#A80036;stroke-width:1.0;"/><path d="M585,729.6406 L585,739.6406 L595,739.6406 L585,729.6406 " fill="#FBFB77" style="stroke:#A80036;stroke-width:1.0;"/><text fill="#000000" font-family="sans-serif" font-size="13" lengthAdjust="spacing" textLength="404" x="176" y="748.1357">EVSE Changes Control Pilot Duty Cycle to Adhere to Charging Profile</text><polygon fill="#A80036" points="1168,779.3438,1178,783.3438,1168,787.3438,1172,783.3438" style="stroke:#A80036;stroke-width:1.0;"/><line style="stroke:#A80036;stroke-width:1.0;" x1="481" x2="1174" y1="783.3438" y2="783.3438"/><text fill="#000000" font-family="sans-serif" font-size="13" lengthAdjust="spacing" textLength="653" x="488" y="778.4873">StatusNotification.req(connectorId, errorCode, status=Charging, [timestamp], [info], [vendorId], [vendorErrorCode])</text><polygon fill="#A80036" points="487,809.6953,477,813.6953,487,817.6953,483,813.6953" style="stroke:#A80036;stroke-width:1.0;"/><line style="stroke:#A80036;stroke-width:1.0;stroke-dasharray:2.0,2.0;" x1="481" x2="1184" y1="813.6953" y2="813.6953"/><text fill="#000000" font-family="sans-serif" font-size="13" lengthAdjust="spacing" textLength="138" x="493" y="808.8389">StatusNotification.conf()</text><polygon fill="#A80036" points="1443,840.0469,1453,844.0469,1443,848.0469,1447,844.0469" style="stroke:#A80036;stroke-width:1.0;"/><line style="stroke:#A80036;stroke-width:1.0;stroke-dasharray:2.0,2.0;" x1="1185" x2="1449" y1="844.0469" y2="844.0469"/><text fill="#000000" font-family="sans-serif" font-size="13" lengthAdjust="spacing" textLength="246" x="1192" y="839.1904">Update Aggregated EV Charging Schedule</text><path d="M125,866.0469 L264,866.0469 L264,874.3984 L254,884.3984 L125,884.3984 L125,866.0469 " fill="#EEEEEE" style="stroke:#000000;stroke-width:1.0;"/><rect fill="none" height="115.4063" style="stroke:#000000;stroke-width:2.0;" width="1133" x="125" y="866.0469"/><text fill="#000000" font-family="sans-serif" font-size="13" font-weight="bold" lengthAdjust="spacing" textLength="94" x="140" y="880.542">Loop Charging</text><path d="M135,889.3984 L135,915.3984 L631,915.3984 L631,899.3984 L621,889.3984 L135,889.3984 " fill="#FBFB77" style="stroke:#A80036;stroke-width:1.0;"/><path d="M621,889.3984 L621,899.3984 L631,899.3984 L621,889.3984 " fill="#FBFB77" style="stroke:#A80036;stroke-width:1.0;"/><text fill="#000000" font-family="sans-serif" font-size="13" lengthAdjust="spacing" textLength="475" x="141" y="907.8936">EVSE Periodically Changes Control Pilot Duty Cycle to Adhere to Charging Profile</text><polygon fill="#A80036" points="1168,939.1016,1178,943.1016,1168,947.1016,1172,943.1016" style="stroke:#A80036;stroke-width:1.0;"/><line style="stroke:#A80036;stroke-width:1.0;" x1="481" x2="1174" y1="943.1016" y2="943.1016"/><text fill="#000000" font-family="sans-serif" font-size="13" lengthAdjust="spacing" textLength="188" x="488" y="938.2451">MeterValueRequest(MeterValue)</text><polygon fill="#A80036" points="487,969.4531,477,973.4531,487,977.4531,483,973.4531" style="stroke:#A80036;stroke-width:1.0;"/><line style="stroke:#A80036;stroke-width:1.0;stroke-dasharray:2.0,2.0;" x1="481" x2="1184" y1="973.4531" y2="973.4531"/><text fill="#000000" font-family="sans-serif" font-size="13" lengthAdjust="spacing" textLength="144" x="493" y="968.5967">MeterValueResponse(...)</text><path d="M160,995.4531 L475,995.4531 L475,1003.8047 L465,1013.8047 L160,1013.8047 L160,995.4531 " fill="#EEEEEE" style="stroke:#000000;stroke-width:1.0;"/><rect fill="none" height="269.1641" style="stroke:#000000;stroke-width:2.0;" width="1380.5" x="160" y="995.4531"/><text fill="#000000" font-family="sans-serif" font-size="13" font-weight="bold" lengthAdjust="spacing" textLength="270" x="175" y="1009.9482">Change Charge Profile (Initiated by CSMS)</text><polygon fill="#A80036" points="1196,1032.1563,1186,1036.1563,1196,1040.1563,1192,1036.1563" style="stroke:#A80036;stroke-width:1.0;"/><line style="stroke:#A80036;stroke-width:1.0;" x1="1190" x2="1454" y1="1036.1563" y2="1036.1563"/><text fill="#000000" font-family="sans-serif" font-size="13" lengthAdjust="spacing" textLength="188" x="1202" y="1031.2998">Update Available PmaxSchedule</text><polygon fill="#A80036" points="492,1062.5078,482,1066.5078,492,1070.5078,488,1066.5078" style="stroke:#A80036;stroke-width:1.0;"/><line style="stroke:#A80036;stroke-width:1.0;" x1="486" x2="1179" y1="1066.5078" y2="1066.5078"/><text fill="#000000" font-family="sans-serif" font-size="13" lengthAdjust="spacing" textLength="315" x="498" y="1061.6514">SetChargingProfile.req(ConnectorId, csChargingProfile)</text><polygon fill="#A80036" points="1173,1092.8594,1183,1096.8594,1173,1100.8594,1177,1096.8594" style="stroke:#A80036;stroke-width:1.0;"/><line style="stroke:#A80036;stroke-width:1.0;stroke-dasharray:2.0,2.0;" x1="476" x2="1179" y1="1096.8594" y2="1096.8594"/><text fill="#000000" font-family="sans-serif" font-size="13" lengthAdjust="spacing" textLength="280" x="483" y="1092.0029">SetChargingProfileResponse(status = Accepted)</text><path d="M170,1109.8594 L170,1135.8594 L595,1135.8594 L595,1119.8594 L585,1109.8594 L170,1109.8594 " fill="#FBFB77" style="stroke:#A80036;stroke-width:1.0;"/><path d="M585,1109.8594 L585,1119.8594 L595,1119.8594 L585,1109.8594 " fill="#FBFB77" style="stroke:#A80036;stroke-width:1.0;"/><text fill="#000000" font-family="sans-serif" font-size="13" lengthAdjust="spacing" textLength="404" x="176" y="1128.3545">EVSE Changes Control Pilot Duty Cycle to Adhere to Charging Profile</text><polygon fill="#A80036" points="1443,1159.5625,1453,1163.5625,1443,1167.5625,1447,1163.5625" style="stroke:#A80036;stroke-width:1.0;"/><line style="stroke:#A80036;stroke-width:1.0;stroke-dasharray:2.0,2.0;" x1="1185" x2="1449" y1="1163.5625" y2="1163.5625"/><text fill="#000000" font-family="sans-serif" font-size="13" lengthAdjust="spacing" textLength="246" x="1192" y="1158.7061">Update Aggregated EV Charging Schedule</text><path d="M441,1178.5625 L856,1178.5625 L856,1186.9141 L846,1196.9141 L441,1196.9141 L441,1178.5625 " fill="#EEEEEE" style="stroke:#000000;stroke-width:1.0;"/><rect fill="none" height="79.0547" style="stroke:#000000;stroke-width:2.0;" width="817" x="441" y="1178.5625"/><text fill="#000000" font-family="sans-serif" font-size="13" font-weight="bold" lengthAdjust="spacing" textLength="370" x="456" y="1193.0576">Optional if chargingState changes based on new schedule</text><polygon fill="#A80036" points="1168,1215.2656,1178,1219.2656,1168,1223.2656,1172,1219.2656" style="stroke:#A80036;stroke-width:1.0;"/><line style="stroke:#A80036;stroke-width:1.0;" x1="481" x2="1174" y1="1219.2656" y2="1219.2656"/><text fill="#000000" font-family="sans-serif" font-size="13" lengthAdjust="spacing" textLength="594" x="488" y="1214.4092">StatusNotification.req(connectorId, errorCode, status, [timestamp], [info], [vendorId], [vendorErrorCode])</text><polygon fill="#A80036" points="487,1245.6172,477,1249.6172,487,1253.6172,483,1249.6172" style="stroke:#A80036;stroke-width:1.0;"/><line style="stroke:#A80036;stroke-width:1.0;stroke-dasharray:2.0,2.0;" x1="481" x2="1184" y1="1249.6172" y2="1249.6172"/><text fill="#000000" font-family="sans-serif" font-size="13" lengthAdjust="spacing" textLength="138" x="493" y="1244.7607">StatusNotification.conf()</text><path d="M20,1278.6172 L331,1278.6172 L331,1286.9688 L321,1296.9688 L20,1296.9688 L20,1278.6172 " fill="#EEEEEE" style="stroke:#000000;stroke-width:1.0;"/><rect fill="none" height="378.2188" style="stroke:#000000;stroke-width:2.0;" width="1238" x="20" y="1278.6172"/><text fill="#000000" font-family="sans-serif" font-size="13" font-weight="bold" lengthAdjust="spacing" textLength="266" x="35" y="1293.1123">End Charging and Stop OCPP Transaction</text><polygon fill="#A80036" points="464,1315.3203,474,1319.3203,464,1323.3203,468,1319.3203" style="stroke:#A80036;stroke-width:1.0;"/><line style="stroke:#A80036;stroke-width:1.0;" x1="290" x2="470" y1="1319.3203" y2="1319.3203"/><text fill="#000000" font-family="sans-serif" font-size="13" lengthAdjust="spacing" textLength="127" x="297" y="1314.4639">Control Pilot C2 -&gt; B2</text><line style="stroke:#A80036;stroke-width:1.0;" x1="476" x2="518" y1="1349.6719" y2="1349.6719"/><line style="stroke:#A80036;stroke-width:1.0;" x1="518" x2="518" y1="1349.6719" y2="1362.6719"/><line style="stroke:#A80036;stroke-width:1.0;" x1="477" x2="518" y1="1362.6719" y2="1362.6719"/><polygon fill="#A80036" points="487,1358.6719,477,1362.6719,487,1366.6719,483,1362.6719" style="stroke:#A80036;stroke-width:1.0;"/><text fill="#000000" font-family="sans-serif" font-size="13" lengthAdjust="spacing" textLength="105" x="483" y="1344.8154">Contactor Opened</text><polygon fill="#A80036" points="1168,1389.0234,1178,1393.0234,1168,1397.0234,1172,1393.0234" style="stroke:#A80036;stroke-width:1.0;"/><line style="stroke:#A80036;stroke-width:1.0;" x1="481" x2="1174" y1="1393.0234" y2="1393.0234"/><text fill="#000000" font-family="sans-serif" font-size="13" lengthAdjust="spacing" textLength="685" x="488" y="1388.167">StatusNotification.req(connectorId, errorCode, status=SuspendedEV, [timestamp], [info], [vendorId], [vendorErrorCode])</text><polygon fill="#A80036" points="487,1419.375,477,1423.375,487,1427.375,483,1423.375" style="stroke:#A80036;stroke-width:1.0;"/><line style="stroke:#A80036;stroke-width:1.0;stroke-dasharray:2.0,2.0;" x1="481" x2="1184" y1="1423.375" y2="1423.375"/><text fill="#000000" font-family="sans-serif" font-size="13" lengthAdjust="spacing" textLength="138" x="493" y="1418.5186">StatusNotification.conf()</text><polygon fill="#A80036" points="278,1449.7266,288,1453.7266,278,1457.7266,282,1453.7266" style="stroke:#A80036;stroke-width:1.0;"/><line style="stroke:#A80036;stroke-width:1.0;" x1="62" x2="284" y1="1453.7266" y2="1453.7266"/><text fill="#000000" font-family="sans-serif" font-size="13" lengthAdjust="spacing" textLength="204" x="69" y="1448.8701">Charging Cable Unplugged from EV</text><polygon fill="#A80036" points="464,1480.0781,474,1484.0781,464,1488.0781,468,1484.0781" style="stroke:#A80036;stroke-width:1.0;"/><line style="stroke:#A80036;stroke-width:1.0;" x1="290" x2="470" y1="1484.0781" y2="1484.0781"/><text fill="#000000" font-family="sans-serif" font-size="13" lengthAdjust="spacing" textLength="162" x="297" y="1479.2217">Control Pilot State B2 -&gt; A2</text><line style="stroke:#A80036;stroke-width:1.0;" x1="476" x2="518" y1="1514.4297" y2="1514.4297"/><line style="stroke:#A80036;stroke-width:1.0;" x1="518" x2="518" y1="1514.4297" y2="1527.4297"/><line style="stroke:#A80036;stroke-width:1.0;" x1="477" x2="518" y1="1527.4297" y2="1527.4297"/><polygon fill="#A80036" points="487,1523.4297,477,1527.4297,487,1531.4297,483,1527.4297" style="stroke:#A80036;stroke-width:1.0;"/><text fill="#000000" font-family="sans-serif" font-size="13" lengthAdjust="spacing" textLength="162" x="483" y="1509.5732">Control Pilot State A2 -&gt; A1</text><polygon fill="#A80036" points="492,1553.7813,482,1557.7813,492,1561.7813,488,1557.7813" style="stroke:#A80036;stroke-width:1.0;"/><line style="stroke:#A80036;stroke-width:1.0;" x1="486" x2="1179" y1="1557.7813" y2="1557.7813"/><text fill="#000000" font-family="sans-serif" font-size="13" lengthAdjust="spacing" textLength="368" x="498" y="1552.9248">StopTransaction.req(connectorId, idTag, meterStart, timestamp)</text><polygon fill="#A80036" points="1173,1584.1328,1183,1588.1328,1173,1592.1328,1177,1588.1328" style="stroke:#A80036;stroke-width:1.0;"/><line style="stroke:#A80036;stroke-width:1.0;stroke-dasharray:2.0,2.0;" x1="476" x2="1179" y1="1588.1328" y2="1588.1328"/><text fill="#000000" font-family="sans-serif" font-size="13" lengthAdjust="spacing" textLength="189" x="483" y="1583.2764">StopTransaction.conf([idTaginfo])</text><polygon fill="#A80036" points="1168,1614.4844,1178,1618.4844,1168,1622.4844,1172,1618.4844" style="stroke:#A80036;stroke-width:1.0;"/><line style="stroke:#A80036;stroke-width:1.0;" x1="481" x2="1174" y1="1618.4844" y2="1618.4844"/><text fill="#000000" font-family="sans-serif" font-size="13" lengthAdjust="spacing" textLength="556" x="488" y="1613.6279">StatusNotification.req(transactionid, meterStop, timestamp, [idTag], [reason], [transactionData] )</text><polygon fill="#A80036" points="487,1644.8359,477,1648.8359,487,1652.8359,483,1648.8359" style="stroke:#A80036;stroke-width:1.0;"/><line style="stroke:#A80036;stroke-width:1.0;stroke-dasharray:2.0,2.0;" x1="481" x2="1184" y1="1648.8359" y2="1648.8359"/><text fill="#000000" font-family="sans-serif" font-size="13" lengthAdjust="spacing" textLength="138" x="493" y="1643.9795">StatusNotification.conf()</text><!--SRC=[rLTjRzis4FwkNt7ebzY0wy0Ui086Ca1Ll2t5l1XH6Wmeye4HAOaOJQeabTJzzJrIibuiEt3J3aC00wR4uxq-z_1qVWQHaYdFu8veJXu4Cs0LR8XDShYErck8xLOmE3iFpBzSWbQ6-LL1DDc0oGbLJrnca1A1Epcd35Abx8Fw4WJdPxSvDs3OvvB9X07b9AjEgISqapD8r6PJIfuGovM41sQV69D-9mwNy67sxjqSbdSm2YE8Sg8pP-bQYkru0e6JQbx6jb8nYcBS8v9w9Jw0sVJN3n35gtWAj_aX9m8YYL3PCywW2qvb54_sr1u_4iNraLKy2QfGfTLA24OXsNczOSOGjvg0KAfeDYPG5XHreeW_wbupABHAkM1jU0p_LGf1eyzj6AkAOdVIUseraOOapiKfrZ48SAqqlC6egEQFJBy1OZ36om2BQdd22o8jlEbMe9Re2oplugNVYEB-HZ_jjSXgJoXcc15Az1P2xyue3iTUD0w38DEgB6hhLv9RJWJ_wfCS0E0FK0hU_kRLmWBMMZqwv8MFX0i7ObXlo9SuoHaj1VFo69uxiBnRjA29Ab5HPXbMvKe6jMIbUU4wmvKCrbmewo669cPkz_tCYzQ-OArhNnPUgZH_AylJ6XPJpJwFC5R9N9nNT09CQwKZHR6KnejVh3N3vFZAVx8SOM79fhZ71ovJvVuViTRkSBjUxfJSZxqJhi2FpaEinjupvgZZApwzhGCyu2mwcex6bInb0oN3ztKYciqwqKvzePbXMEkRtwykHz6VuSqVotzcyr_6WwI5fSsLvb-PpnMdjoIxwCYV4E0mjbQd3wbAD5mWsX9MM4R7Hq8P1krVgy9stCOW5z3Dczzp_JZ847RDq91_9HK-AEm_b9budrr7WIsrD81qqeVVjKcu4CIroXEtELoob9J2mcLfjn1janhdE_-UHU_yk0Eero9GJUKBilSD8tHRSPb0yZSxVUW4NX7nt5qNLOlQbezFQAJtSxyx7tHH9Lvnb3T9WqDTfkrjXzS6FUP1D466jKnxQQJkNMEDZ-1d7mhxlT8twM7bpRWcdNHfzkeGkbRn4SHrR3bJo6SnixjChYlIzm56tG0JioTYnesoKqAh0riTjdV3JA6aOQEcNG2-DwGZ-4PBCaCSzK7HmjW1AgGvqtxLa7NjM4iq5V7yEFT6pQNxwgYthpOE5_3HpGtOvrccMOOhwhgmdPAwDsA0iUnksh_SzD5htYwb7odaccckA7elnFQ7gnhqwzejwyhry1qH9Q8I9qbZH-sR5rqDNOKrpAVJwUaNGYzrLU1LHAo9PxIZH0eFMtzkt0-mdL_QeXsSNdgLQ5dYXIHnUhuQVdYM7awvLW-n1EpryN_85Izk4d-mAl9ruJgK2E1fCwHNrrXIU_X0yA9ojxPaJs2wVVPJMEgLpeL-8jfhcAKR9RfVB35-iLHVAfthjJT1mFu84SthEUROu71TC8dr27xIV1wN1XLIHXqwNsKbZd__V9H5_GMKQhNPpQkd36_XeVmFHivAT3RaBopxoqUuuQHpAAS7k6pFgi_cfsQCknz_PrvFm5PdCEIqYKSLdN0SZfmB3ZoQ4QEaMtKENX9Bxk5_nf7hvcy0]--></g></svg>