<?xml version="1.0" encoding="us-ascii" standalone="no"?><svg xmlns="http://www.w3.org/2000/svg" xmlns:xlink="http://www.w3.org/1999/xlink" contentStyleType="text/css" height="366px" preserveAspectRatio="none" style="width:931px;height:366px;background:#FFFFFF;" version="1.1" viewBox="0 0 931 366" width="931px" zoomAndPan="magnify"><defs><linearGradient id="g14cbmhvn9qdoz0" x1="0%" x2="100%" y1="50%" y2="50%"><stop offset="0%" stop-color="#FFCCCC"/><stop offset="100%" stop-color="#FFFFFF"/></linearGradient></defs><g><text fill="#000000" font-family="sans-serif" font-size="30" font-weight="bold" lengthAdjust="spacing" textLength="638" x="139.5" y="41.1426">SAE J1772 EVSE Control Pilot State Machine</text><!--cluster A--><g id="cluster_A"><path d="M19.5,65.7344 L146.5,65.7344 A12.5,12.5 0 0 1 159,78.2344 L159,88.3438 L7,88.3438 L7,78.2344 A12.5,12.5 0 0 1 19.5,65.7344 " fill="#DDDDFF" style="stroke:#DDDDFF;stroke-width:1.0;"/><rect fill="none" height="293" rx="12.5" ry="12.5" style="stroke:#181818;stroke-width:0.5;" width="152" x="7" y="65.7344"/><line style="stroke:#181818;stroke-width:0.5;" x1="7" x2="159" y1="88.3438" y2="88.3438"/><text fill="#000000" font-family="sans-serif" font-size="14" lengthAdjust="spacing" textLength="68" x="49" y="84.2676">Unplugged</text></g><!--cluster B--><g id="cluster_B"><path d="M195.5,65.7344 L450.5,65.7344 A12.5,12.5 0 0 1 463,78.2344 L463,88.3438 L183,88.3438 L183,78.2344 A12.5,12.5 0 0 1 195.5,65.7344 " fill="#FFFFCE" style="stroke:#FFFFCE;stroke-width:1.0;"/><rect fill="none" height="293" rx="12.5" ry="12.5" style="stroke:#181818;stroke-width:0.5;" width="280" x="183" y="65.7344"/><line style="stroke:#181818;stroke-width:0.5;" x1="183" x2="463" y1="88.3438" y2="88.3438"/><text fill="#000000" font-family="sans-serif" font-size="14" lengthAdjust="spacing" textLength="68" x="289" y="84.2676">Plugged-in</text></g><!--cluster C--><g id="cluster_C"><path d="M499.5,253.7344 L572.5,253.7344 A12.5,12.5 0 0 1 585,266.2344 L585,276.3438 L487,276.3438 L487,266.2344 A12.5,12.5 0 0 1 499.5,253.7344 " fill="#CCFFCC" style="stroke:#CCFFCC;stroke-width:1.0;"/><rect fill="none" height="105" rx="12.5" ry="12.5" style="stroke:#181818;stroke-width:0.5;" width="98" x="487" y="253.7344"/><line style="stroke:#181818;stroke-width:0.5;" x1="487" x2="585" y1="276.3438" y2="276.3438"/><text fill="#000000" font-family="sans-serif" font-size="14" lengthAdjust="spacing" textLength="58" x="507" y="272.2676">Charging</text></g><!--cluster D--><g id="cluster_D"><path d="M732.5,65.7344 L874.5,65.7344 A12.5,12.5 0 0 1 887,78.2344 L887,88.3438 L720,88.3438 L720,78.2344 A12.5,12.5 0 0 1 732.5,65.7344 " fill="#FFCCCC" style="stroke:#FFCCCC;stroke-width:1.0;"/><rect fill="none" height="105" rx="12.5" ry="12.5" style="stroke:#181818;stroke-width:0.5;" width="167" x="720" y="65.7344"/><line style="stroke:#181818;stroke-width:0.5;" x1="720" x2="887" y1="88.3438" y2="88.3438"/><text fill="#000000" font-family="sans-serif" font-size="14" lengthAdjust="spacing" textLength="55" x="776" y="84.2676">Disabled</text></g><g id="A.A1"><rect fill="#DDDDFF" height="52.7031" rx="12.5" ry="12.5" style="stroke:#181818;stroke-width:0.5;" width="50" x="53" y="101.7344"/><line style="stroke:#181818;stroke-width:0.5;" x1="53" x2="103" y1="129.3438" y2="129.3438"/><text fill="#000000" font-family="sans-serif" font-size="14" lengthAdjust="spacing" textLength="17" x="69.5" y="121.2676">A1</text><text fill="#000000" font-family="sans-serif" font-size="12" lengthAdjust="spacing" textLength="21" x="58" y="146.8008">12V</text></g><g id="A.A2"><rect fill="#DDDDFF" height="52.7031" rx="12.5" ry="12.5" style="stroke:#181818;stroke-width:0.5;" width="72" x="71" y="289.7344"/><line style="stroke:#181818;stroke-width:0.5;" x1="71" x2="143" y1="317.3438" y2="317.3438"/><text fill="#000000" font-family="sans-serif" font-size="14" lengthAdjust="spacing" textLength="17" x="98.5" y="309.2676">A2</text><text fill="#000000" font-family="sans-serif" font-size="12" lengthAdjust="spacing" textLength="52" x="76" y="334.8008">12V PWM</text></g><g id="B.B1"><rect fill="#FFFFCE" height="52.7031" rx="12.5" ry="12.5" style="stroke:#181818;stroke-width:0.5;" width="50" x="199" y="101.7344"/><line style="stroke:#181818;stroke-width:0.5;" x1="199" x2="249" y1="129.3438" y2="129.3438"/><text fill="#000000" font-family="sans-serif" font-size="14" lengthAdjust="spacing" textLength="17" x="215.5" y="121.2676">B1</text><text fill="#000000" font-family="sans-serif" font-size="12" lengthAdjust="spacing" textLength="14" x="204" y="146.8008">9V</text></g><g id="B.B2"><rect fill="#FFFFCE" height="52.7031" rx="12.5" ry="12.5" style="stroke:#181818;stroke-width:0.5;" width="65" x="267.5" y="289.7344"/><line style="stroke:#181818;stroke-width:0.5;" x1="267.5" x2="332.5" y1="317.3438" y2="317.3438"/><text fill="#000000" font-family="sans-serif" font-size="14" lengthAdjust="spacing" textLength="17" x="291.5" y="309.2676">B2</text><text fill="#000000" font-family="sans-serif" font-size="12" lengthAdjust="spacing" textLength="45" x="272.5" y="334.8008">9V PWM</text></g><g id="B.C1"><rect fill="#FFFFCE" height="52.7031" rx="12.5" ry="12.5" style="stroke:#181818;stroke-width:0.5;" width="50" x="397" y="101.7344"/><line style="stroke:#181818;stroke-width:0.5;" x1="397" x2="447" y1="129.3438" y2="129.3438"/><text fill="#000000" font-family="sans-serif" font-size="14" lengthAdjust="spacing" textLength="18" x="413" y="121.2676">C1</text><text fill="#000000" font-family="sans-serif" font-size="12" lengthAdjust="spacing" textLength="14" x="402" y="146.8008">6V</text></g><g id="C.C2"><rect fill="#CCFFCC" height="52.7031" rx="12.5" ry="12.5" style="stroke:#181818;stroke-width:0.5;" width="65" x="503.5" y="289.7344"/><line style="stroke:#181818;stroke-width:0.5;" x1="503.5" x2="568.5" y1="317.3438" y2="317.3438"/><text fill="#000000" font-family="sans-serif" font-size="14" lengthAdjust="spacing" textLength="18" x="527" y="309.2676">C2</text><text fill="#000000" font-family="sans-serif" font-size="12" lengthAdjust="spacing" textLength="45" x="508.5" y="334.8008">6V PWM</text></g><g id="D.E"><rect fill="url(#g14cbmhvn9qdoz0)" height="52.7031" rx="12.5" ry="12.5" style="stroke:#181818;stroke-width:0.5;" width="50" x="821" y="101.7344"/><line style="stroke:#181818;stroke-width:0.5;" x1="821" x2="871" y1="129.3438" y2="129.3438"/><text fill="#000000" font-family="sans-serif" font-size="14" lengthAdjust="spacing" textLength="9" x="841.5" y="121.2676">E</text><text fill="#000000" font-family="sans-serif" font-size="12" lengthAdjust="spacing" textLength="14" x="826" y="146.8008">0V</text></g><g id="D.F"><rect fill="#FFCCCC" height="52.7031" rx="12.5" ry="12.5" style="stroke:#181818;stroke-width:1.0;stroke-dasharray:1.0,3.0;" width="50" x="736" y="101.7344"/><line style="stroke:#181818;stroke-width:1.0;stroke-dasharray:1.0,3.0;" x1="736" x2="786" y1="129.3438" y2="129.3438"/><text fill="#000000" font-family="sans-serif" font-size="14" lengthAdjust="spacing" textLength="9" x="756.5" y="121.2676">F</text><text fill="#000000" font-family="sans-serif" font-size="12" lengthAdjust="spacing" textLength="25" x="741" y="146.8008">-12V</text></g><ellipse cx="803" cy="316.2344" fill="#222222" rx="10" ry="10" style="stroke:#222222;stroke-width:1.0;"/><!--reverse link A1 to B1--><g id="link_A1_B1"><path d="M108.8037,145.6175 C114.2837,148.1575 114.73,147.8844 120.5,149.2344 C146.9,155.4044 155.1,155.4044 181.5,149.2344 C187.27,147.8844 193.16,145.6344 198.64,143.0944 " fill="none" id="A1-backto-B1" style="stroke:#181818;stroke-width:1.0;"/><polygon fill="#181818" points="103.36,143.0944,109.8434,150.5082,107.8964,145.197,113.2076,143.25,103.36,143.0944" style="stroke:#181818;stroke-width:1.0;"/><text fill="#000000" font-family="sans-serif" font-size="13" lengthAdjust="spacing" textLength="59" x="121.5" y="145.7295">Unplug [5]</text></g><!--link A1 to B1--><g id="link_A1_B1"><path d="M103.1,128.2344 C129.84,128.2344 165.94,128.2344 192.74,128.2344 " fill="none" id="A1-to-B1" style="stroke:#181818;stroke-width:1.0;"/><polygon fill="#181818" points="198.74,128.2344,189.74,124.2344,193.74,128.2344,189.74,132.2344,198.74,128.2344" style="stroke:#181818;stroke-width:1.0;"/><text fill="#000000" font-family="sans-serif" font-size="13" lengthAdjust="spacing" textLength="59" x="121.5" y="121.7295">Plug-in [1]</text></g><!--reverse link A2 to B2--><g id="link_A2_B2"><path d="M148.8295,331.3956 C158.9295,334.5356 164.28,335.6444 174.75,337.2344 C201.56,341.2944 208.98,341.4944 235.75,337.2344 C246.3,335.5544 257.46,332.4144 267.48,329.0644 " fill="none" id="A2-backto-B2" style="stroke:#181818;stroke-width:1.0;"/><polygon fill="#181818" points="143.1,329.6144,150.5067,336.1059,147.8746,331.0987,152.8817,328.4666,143.1,329.6144" style="stroke:#181818;stroke-width:1.0;"/><text fill="#000000" font-family="sans-serif" font-size="13" lengthAdjust="spacing" textLength="59" x="175.75" y="333.7295">Unplug [5]</text></g><!--link A2 to B2--><g id="link_A2_B2"><path d="M143.3,316.2344 C179.01,316.2344 227.02,316.2344 261.39,316.2344 " fill="none" id="A2-to-B2" style="stroke:#181818;stroke-width:1.0;"/><polygon fill="#181818" points="267.39,316.2344,258.39,312.2344,262.39,316.2344,258.39,320.2344,267.39,316.2344" style="stroke:#181818;stroke-width:1.0;"/><text fill="#000000" font-family="sans-serif" font-size="13" lengthAdjust="spacing" textLength="59" x="175.75" y="309.7295">Plug-in [1]</text></g><!--reverse link B1 to C1--><g id="link_B1_C1"><path d="M254.1151,157.1905 C260.3751,161.9805 262.65,162.6444 270,165.2344 C292.22,173.0644 353.78,173.0644 376,165.2344 C383.35,162.6444 390.39,158.3344 396.65,153.5444 " fill="none" id="B1-backto-C1" style="stroke:#181818;stroke-width:1.0;"/><polygon fill="#181818" points="249.35,153.5444,254.0669,162.1903,253.3209,156.5828,258.9283,155.8368,249.35,153.5444" style="stroke:#181818;stroke-width:1.0;"/><text fill="#000000" font-family="sans-serif" font-size="13" lengthAdjust="spacing" textLength="57" x="292.5" y="145.7295">EV opens</text><text fill="#000000" font-family="sans-serif" font-size="13" lengthAdjust="spacing" textLength="104" x="271" y="162.0811">pilot switch S2 [9]</text></g><!--link B1 to C1--><g id="link_B1_C1"><path d="M249.08,128.2344 C287.06,128.2344 352.77,128.2344 390.81,128.2344 " fill="none" id="B1-to-C1" style="stroke:#181818;stroke-width:1.0;"/><polygon fill="#181818" points="396.81,128.2344,387.81,124.2344,391.81,128.2344,387.81,132.2344,396.81,128.2344" style="stroke:#181818;stroke-width:1.0;"/><text fill="#000000" font-family="sans-serif" font-size="13" lengthAdjust="spacing" textLength="60" x="291" y="105.7295">EV closes</text><text fill="#000000" font-family="sans-serif" font-size="13" lengthAdjust="spacing" textLength="111" x="267.5" y="122.0811">pilot switch S2 [10]</text></g><!--reverse link B2 to C2--><g id="link_B2_C2"><path d="M338.81,316.2344 C383.9,316.2344 458.52,316.2344 503.46,316.2344 " fill="none" id="B2-backto-C2" style="stroke:#181818;stroke-width:1.0;"/><polygon fill="#181818" points="332.81,316.2344,341.81,320.2344,337.81,316.2344,341.81,312.2344,332.81,316.2344" style="stroke:#181818;stroke-width:1.0;"/><text fill="#000000" font-family="sans-serif" font-size="13" lengthAdjust="spacing" textLength="57" x="387.5" y="253.7295">EV opens</text><text fill="#000000" font-family="sans-serif" font-size="13" lengthAdjust="spacing" textLength="104" x="366" y="270.0811">pilot switch S2 [4]</text></g><!--link B2 to C2--><g id="link_B2_C2"><path d="M332.63,339.1544 C342.57,344.9044 353.83,350.2744 365,353.2344 C387.77,359.2644 448.23,359.2644 471,353.2344 C482.17,350.2744 488.2364,347.9087 498.1764,342.1587 " fill="none" id="B2-to-C2" style="stroke:#181818;stroke-width:1.0;"/><polygon fill="#181818" points="503.37,339.1544,493.5766,340.1985,499.042,341.658,497.5825,347.1233,503.37,339.1544" style="stroke:#181818;stroke-width:1.0;"/><text fill="#000000" font-family="sans-serif" font-size="13" lengthAdjust="spacing" textLength="60" x="386" y="333.7295">EV closes</text><text fill="#000000" font-family="sans-serif" font-size="13" lengthAdjust="spacing" textLength="104" x="366" y="350.0811">pilot switch S2 [3]</text></g><!--reverse link C1 to C2--><g id="link_C1_C2"><path d="M438.1215,160.4054 C449.8215,182.6654 464.82,210.1444 482,237.7344 C493.01,255.4144 506.38,274.6244 517.07,289.4944 " fill="none" id="C1-backto-C2" style="stroke:#181818;stroke-width:1.0;"/><polygon fill="#181818" points="435.33,155.0944,435.9766,164.922,437.6563,159.5203,443.058,161.1999,435.33,155.0944" style="stroke:#181818;stroke-width:1.0;"/><text fill="#000000" font-family="sans-serif" font-size="13" lengthAdjust="spacing" textLength="83" x="483" y="217.7295">Stop PWM [8]</text></g><!--link C1 to C2--><g id="link_C1_C2"><path d="M447,130.6344 C481.61,134.0644 543,145.9244 571,186.7344 C592.45,218.0044 575.2579,256.8739 557.8279,284.4239 " fill="none" id="C1-to-C2" style="stroke:#181818;stroke-width:1.0;"/><polygon fill="#181818" points="554.62,289.4944,562.8121,284.0273,557.2933,285.269,556.0516,279.7501,554.62,289.4944" style="stroke:#181818;stroke-width:1.0;"/><text fill="#000000" font-family="sans-serif" font-size="13" lengthAdjust="spacing" textLength="91" x="582" y="217.7295">Start PWM [11]</text></g><!--reverse link B1 to B2--><g id="link_B1_B2"><path d="M220.6735,160.8406 C219.1335,183.5206 219.86,211.0844 231,237.7344 C239.27,257.5144 254.76,275.6544 268.97,289.3944 " fill="none" id="B1-backto-B2" style="stroke:#181818;stroke-width:1.0;"/><polygon fill="#181818" points="221.08,154.8544,216.4795,163.5627,220.7413,159.8429,224.4611,164.1047,221.08,154.8544" style="stroke:#181818;stroke-width:1.0;"/><text fill="#000000" font-family="sans-serif" font-size="13" lengthAdjust="spacing" textLength="83" x="232" y="217.7295">Stop PWM [7]</text></g><!--link B1 to B2--><g id="link_B1_B2"><path d="M249.22,136.4744 C272.26,144.5844 304.96,160.1944 320,186.7344 C338.2,218.8544 327.3946,256.8573 315.4746,284.1073 " fill="none" id="B1-to-B2" style="stroke:#181818;stroke-width:1.0;"/><polygon fill="#181818" points="313.07,289.6044,320.3416,282.9618,315.0738,285.0235,313.0122,279.7557,313.07,289.6044" style="stroke:#181818;stroke-width:1.0;"/><text fill="#000000" font-family="sans-serif" font-size="13" lengthAdjust="spacing" textLength="84" x="330" y="217.7295">Start PWM [2]</text></g><!--reverse link A1 to A2--><g id="link_A1_A2"><path d="M82.9541,161.0228 C88.4941,196.5628 97.48,254.1744 103,289.5944 " fill="none" id="A1-backto-A2" style="stroke:#181818;stroke-width:1.0;"/><polygon fill="#181818" points="82.03,155.0944,79.4639,164.6031,82.8001,160.0347,87.3685,163.3709,82.03,155.0944" style="stroke:#181818;stroke-width:1.0;"/><text fill="#000000" font-family="sans-serif" font-size="13" lengthAdjust="spacing" textLength="83" x="96" y="217.7295">Stop PWM [6]</text></g><!--reverse link E to *start*--><g id="link_E_*start*"><path d="M840.6511,160.7037 C836.7711,182.7737 831.71,209.5544 825,237.7344 C819.04,262.7644 810.28,291.8544 805.83,306.2344 " fill="none" id="E-backto-*start*" style="stroke:#181818;stroke-width:1.0;"/><polygon fill="#181818" points="841.69,154.7944,836.1921,162.9658,840.8243,159.7189,844.0712,164.351,841.69,154.7944" style="stroke:#181818;stroke-width:1.0;"/><text fill="#000000" font-family="sans-serif" font-size="13" lengthAdjust="spacing" textLength="82" x="837" y="201.2295">Power Outage</text><text fill="#000000" font-family="sans-serif" font-size="13" lengthAdjust="spacing" textLength="76" x="840" y="217.5811">or Pilot Short</text><text fill="#000000" font-family="sans-serif" font-size="13" lengthAdjust="spacing" textLength="57" x="851.5" y="233.9326">to Ground</text></g><!--reverse link F to *start*--><g id="link_F_*start*"><path d="M746.324,160.35 C737.204,182.71 730.24,210.2544 740,237.7344 C751.26,269.4344 781.63,297.5944 795.69,309.3744 " fill="none" id="F-backto-*start*" style="stroke:#181818;stroke-width:1.0;"/><polygon fill="#181818" points="748.59,154.7944,741.4872,161.6172,746.7017,159.4241,748.8948,164.6385,748.59,154.7944" style="stroke:#181818;stroke-width:1.0;"/><text fill="#000000" font-family="sans-serif" font-size="13" lengthAdjust="spacing" textLength="79" x="741" y="217.7295">EVSE Failure</text></g><!--SRC=[XLLDSzem4BtxL-o4Gv9EQMBJ9Ws7Ta10fvr9mvIK7XmV55l1cXZ98ybXwCT_xqgsi4cOriC1jBlllNsx5iVwaOkIAhg6WWjcjYK3gKmkWpPmoqt1PbAO1V_9O70Uk0DOZARm9RoyZ62wN4o1O8AI1Snv8Gqi33KChccQ8seGQFVpwBieYsgrOjaHK0qZw4tmcStW5q00-DHfez07XX16oxrGj1-Q_xWE_dZqUOtTvyB1Zw4tmuTCBNmDKgiQXpuoXAjbDn1r0mwy3P9ErSMoPIKvLIikLewJG8yGp26EiqjA8X-ovOrmZp7XcjuNZIqJoqF80OofZ_pUvDom8PntrSzsTRrUd4bZM9R04FheawKApewXzX_eWs6gdjfdmGt7wWn1P0d7Pm6wqo_OW-b_i8CO-fhuNM8HlagrfZXaF4AVRJuczHLVvRO0QuS-58T9qAdmr1fvWRzaZLhMQ8yLB0ZNzjX8EoAZgD1OBmKyqO9d7vsAgAF20ZoNWQooP0871Okewy0pBLB1c8oHQhN27JzHLB5JIq1QMsoN7a_3dIZTnkiDDsbkmUEhf65iiGzYZZlMaGOqBQHc1r73yrqdBwT6MlzS-_-IzpOv04ELyNFOIOh-9sdW5HtS9AkfAdrlxXJN7kBtZXyFSPvaRvwfh8eCSbgYT92Ys3Q3eYvFkffTTe0l0UemERCYSzoi0MYMIf5fcslRjo9FQYBqEewIqzTmNnd8AcKN0QyvpI3eb3aiRAOMOYebt9dKAIyAQd0vxcdwYDBU0Dpck9NuUM9g2tQcVaqokH7UljfOrtOOTjmYShsc8aEtK9keBqnCz9U97uMpRxnltsMoGvammrAZtRBZhYEW5VIDqMphxB9ep6zQ8slyJ5RKKLNv-naUb5p377src3Tj-zhWD-pVltDEu6XVu0KYng-I9ZYrBwFSu1HlAaDHpfr0dEPV8iV_6Zn0hP-Kh92gKpXpsuUgPfGN5TeR_0K0]--></g></svg>